<?xml version="1.0" encoding="utf-8"?>
<!-- Generator: Adobe Illustrator 24.1.1, SVG Export Plug-In . SVG Version: 6.00 Build 0)  -->
<svg version="1.1" id="Layer_1" xmlns="http://www.w3.org/2000/svg" xmlns:xlink="http://www.w3.org/1999/xlink" x="0px" y="0px"
	 viewBox="0 0 1024 290" style="enable-background:new 0 0 1024 290;" xml:space="preserve">
<style type="text/css">
	.st0{fill:#7289DA;}
	.st1{fill:#FFFFFF;}
</style>
<image style="overflow:visible;opacity:0.3;" width="343" height="85" xlink:href="D15CD0AF.png"  transform="matrix(2.9832 0 0 2.9832 0.7692 36.6764)">
</image>
<g>
	<polygon class="st0" points="774.1,161 813.3,61.5 78.9,61.5 26.2,195.4 193.2,195.4 169.1,224.3 903.5,224.3 956.2,161 	"/>
</g>
<g>
	<g>
		<path class="st1" d="M408.3,129.7h4v20.6h-4V129.7z M420.8,137.8c0-1.5-0.4-2.6-1.1-3.4c-0.8-0.8-1.8-1.2-3.2-1.2
			c-1.3,0-2.3,0.4-3.1,1c-0.7,0.7-1.1,1.7-1.1,3l-0.4-4c0.6-1.2,1.5-2.2,2.5-2.9c1-0.7,2.2-1,3.4-1c2.2,0,4,0.7,5.2,2.2
			c1.2,1.5,1.8,3.5,1.8,6.2v12.5h-4V137.8z"/>
		<path class="st1" d="M431.9,149c-1.3-1-1.9-2.6-1.9-4.8c0-2,0.6-3.6,1.7-4.6c1.1-1,2.9-1.5,5.2-1.5h5.8l0.3,3.2H437
			c-1.1,0-1.8,0.2-2.4,0.7c-0.5,0.5-0.8,1.2-0.8,2.1c0,1,0.3,1.8,1,2.3c0.7,0.5,1.7,0.8,3.2,0.8c1.5,0,2.7-0.2,3.5-0.5
			c0.8-0.3,1.1-0.8,1.1-1.5l0.4,2.9c-0.4,0.6-0.8,1-1.3,1.4c-0.5,0.4-1.1,0.6-1.8,0.8c-0.7,0.2-1.5,0.3-2.3,0.3
			C435,150.6,433.1,150,431.9,149z M442.6,137.2c0-1.3-0.4-2.4-1.1-3.1c-0.7-0.7-1.7-1.1-3.1-1.1c-0.8,0-1.6,0.1-2.4,0.4
			c-0.8,0.3-1.5,0.6-2.1,1l-3-2c0.8-0.9,1.8-1.7,3.1-2.2s2.7-0.8,4.2-0.8c1.7,0,3.2,0.3,4.4,0.9s2.1,1.5,2.8,2.6
			c0.6,1.1,1,2.5,1,4.1v13.2h-3.8V137.2z"/>
		<path class="st1" d="M452.6,129.7h4v20.6h-4V129.7z M464.9,137.8c0-1.5-0.4-2.6-1.1-3.4c-0.7-0.8-1.7-1.2-3-1.2
			c-1.3,0-2.3,0.4-3.1,1c-0.7,0.7-1.1,1.7-1.1,3l-0.4-4c0.6-1.2,1.5-2.2,2.5-2.9c1-0.7,2.2-1,3.4-1c1.4,0,2.7,0.3,3.7,1
			c1,0.7,1.8,1.6,2.3,2.9c0.5,1.3,0.8,2.8,0.8,4.5v12.5h-4V137.8z M477.1,137.8c0-1.5-0.4-2.6-1.1-3.4s-1.8-1.2-3.2-1.2
			c-1.3,0-2.2,0.4-2.9,1.1c-0.7,0.8-1,1.8-1,3.2l-0.8-4c0.6-1.4,1.5-2.4,2.6-3.2c1.1-0.7,2.2-1.1,3.5-1.1c1.5,0,2.7,0.3,3.8,1
			s1.8,1.6,2.4,2.9c0.5,1.3,0.8,2.8,0.8,4.5v12.5h-4V137.8z"/>
		<path class="st1" d="M491.3,142.2c0,1.4,0.4,2.6,1.1,3.3c0.7,0.8,1.8,1.2,3.1,1.2c1.3,0,2.3-0.3,3.1-1s1.1-1.7,1.1-3l0.3,4.3
			c-0.4,1-1.1,1.9-2.1,2.6c-1,0.7-2.1,1-3.5,1c-2.3,0-4-0.7-5.3-2.2c-1.2-1.5-1.9-3.5-1.9-6.2v-12.5h4V142.2z M499.7,129.7h4v20.6
			h-4V129.7z"/>
		<path class="st1" d="M513.7,150.2c-1.1-0.2-2.1-0.6-3-1.1c-0.9-0.5-1.8-1.1-2.6-1.8l2.4-2.9c1.1,0.8,2.2,1.5,3.3,1.9
			c1.1,0.4,2.2,0.6,3.2,0.6c1.6,0,2.8-0.2,3.6-0.7c0.8-0.5,1.2-1.2,1.2-2.2c0-0.7-0.2-1.2-0.7-1.5s-1-0.6-1.6-0.7
			c-0.6-0.1-1.6-0.2-2.7-0.3c-0.1,0-0.2,0-0.3,0c-0.1,0-0.2,0-0.3,0c-0.1,0-0.1,0-0.2,0c-0.1,0-0.1,0-0.2,0
			c-1.3-0.1-2.5-0.3-3.4-0.6c-0.9-0.3-1.7-0.8-2.3-1.6s-0.9-1.9-0.9-3.3c0-1.5,0.3-2.7,0.9-3.6c0.6-1,1.5-1.7,2.7-2.2
			c1.2-0.5,2.6-0.7,4.4-0.7c1.1,0,2.1,0.1,3.1,0.3c1,0.2,1.9,0.5,2.8,0.9c0.9,0.4,1.7,0.9,2.6,1.5l-2.4,2.9c-1-0.7-2-1.2-3-1.5
			c-1-0.3-2-0.5-2.9-0.5c-1.4,0-2.4,0.2-3.1,0.7c-0.7,0.5-1,1.2-1,2.1c0,0.6,0.2,1,0.6,1.2c0.4,0.3,0.9,0.5,1.5,0.6s1.4,0.2,2.5,0.2
			c0.1,0,0.2,0,0.2,0s0.2,0,0.3,0c0,0,0.1,0,0.1,0c0,0,0.1,0,0.1,0c1.4,0.1,2.7,0.3,3.7,0.6c1,0.3,1.9,0.9,2.5,1.7s1,2.1,1,3.7
			c0,1.5-0.3,2.7-1,3.7c-0.6,1-1.6,1.7-2.9,2.2c-1.3,0.5-2.9,0.7-4.8,0.7C515.9,150.6,514.8,150.5,513.7,150.2z"/>
		<path class="st1" d="M531.8,149c-1.3-1-1.9-2.6-1.9-4.8c0-2,0.6-3.6,1.7-4.6c1.1-1,2.9-1.5,5.2-1.5h5.8l0.3,3.2h-6.1
			c-1.1,0-1.8,0.2-2.4,0.7c-0.5,0.5-0.8,1.2-0.8,2.1c0,1,0.3,1.8,1,2.3c0.7,0.5,1.7,0.8,3.2,0.8c1.5,0,2.7-0.2,3.5-0.5
			c0.8-0.3,1.1-0.8,1.1-1.5l0.4,2.9c-0.4,0.6-0.8,1-1.3,1.4c-0.5,0.4-1.1,0.6-1.8,0.8c-0.7,0.2-1.5,0.3-2.3,0.3
			C534.9,150.6,533,150,531.8,149z M542.5,137.2c0-1.3-0.4-2.4-1.1-3.1c-0.7-0.7-1.7-1.1-3.1-1.1c-0.8,0-1.6,0.1-2.4,0.4
			c-0.8,0.3-1.5,0.6-2.1,1l-3-2c0.8-0.9,1.8-1.7,3.1-2.2c1.3-0.5,2.7-0.8,4.2-0.8c1.7,0,3.2,0.3,4.4,0.9c1.2,0.6,2.1,1.5,2.8,2.6
			c0.6,1.1,1,2.5,1,4.1v13.2h-3.8V137.2z"/>
		<path class="st1" d="M552.5,129.7h4v20.6h-4V129.7z M564.9,137.8c0-1.5-0.4-2.6-1.1-3.4c-0.8-0.8-1.8-1.2-3.2-1.2
			c-1.3,0-2.3,0.4-3.1,1c-0.7,0.7-1.1,1.7-1.1,3l-0.4-4c0.6-1.2,1.5-2.2,2.5-2.9c1-0.7,2.2-1,3.4-1c2.2,0,4,0.7,5.2,2.2
			s1.8,3.5,1.8,6.2v12.5h-4V137.8z"/>
		<path class="st1" d="M577.8,149.6c-1.1-0.7-1.9-1.6-2.4-2.9s-0.8-2.8-0.8-4.5v-4.5c0-1.8,0.3-3.3,0.8-4.5c0.5-1.3,1.3-2.2,2.4-2.9
			c1-0.7,2.3-1,3.7-1c1.2,0,2.3,0.3,3.3,1c1,0.6,1.8,1.5,2.4,2.7l-0.4,4.2c0-0.9-0.2-1.6-0.5-2.2c-0.3-0.6-0.8-1.1-1.4-1.4
			c-0.6-0.3-1.3-0.5-2.2-0.5c-1.3,0-2.4,0.4-3.1,1.2s-1.1,2-1.1,3.5v4.5c0,1.5,0.4,2.6,1.1,3.5c0.7,0.8,1.8,1.2,3.1,1.2
			c0.9,0,1.6-0.2,2.2-0.5s1.1-0.8,1.4-1.5c0.3-0.6,0.5-1.4,0.5-2.3l0.3,4.3c-0.4,1-1.1,1.9-2,2.6c-0.9,0.7-2.1,1-3.4,1
			C580.1,150.6,578.8,150.3,577.8,149.6z M577.9,157.8c-1.2-0.6-2.2-1.4-2.8-2.4l2.7-2.5c0.5,0.7,1.2,1.3,1.9,1.7
			c0.7,0.4,1.5,0.6,2.3,0.6c1.5,0,2.7-0.4,3.6-1.3c0.8-0.9,1.3-2.1,1.3-3.6v-20.5h4v19.9c0,1.9-0.3,3.5-1,4.9s-1.7,2.4-3,3.1
			s-2.9,1-4.8,1C580.5,158.6,579.1,158.3,577.9,157.8z"/>
		<path class="st1" d="M597.9,149c-1.3-1-1.9-2.6-1.9-4.8c0-2,0.6-3.6,1.7-4.6c1.1-1,2.9-1.5,5.2-1.5h5.8l0.3,3.2h-6.1
			c-1.1,0-1.8,0.2-2.4,0.7c-0.5,0.5-0.8,1.2-0.8,2.1c0,1,0.3,1.8,1,2.3c0.7,0.5,1.7,0.8,3.2,0.8c1.5,0,2.7-0.2,3.5-0.5
			c0.8-0.3,1.1-0.8,1.1-1.5l0.4,2.9c-0.4,0.6-0.8,1-1.3,1.4c-0.5,0.4-1.1,0.6-1.8,0.8c-0.7,0.2-1.5,0.3-2.3,0.3
			C601,150.6,599.1,150,597.9,149z M608.6,137.2c0-1.3-0.4-2.4-1.1-3.1c-0.7-0.7-1.7-1.1-3.1-1.1c-0.8,0-1.6,0.1-2.4,0.4
			c-0.8,0.3-1.5,0.6-2.1,1l-3-2c0.8-0.9,1.8-1.7,3.1-2.2c1.3-0.5,2.7-0.8,4.2-0.8c1.7,0,3.2,0.3,4.4,0.9c1.2,0.6,2.1,1.5,2.8,2.6
			c0.6,1.1,1,2.5,1,4.1v13.2h-3.8V137.2z"/>
		<path class="st1" d="M638.1,139.9v3.3h-21v-3.3H638.1z M639.3,128.5v3.3h-21v-3.3H639.3z M624.7,121.5h3.2l-4.9,28.8h-3.2
			L624.7,121.5z M633.1,121.5h3.2l-4.9,28.8h-3.2L633.1,121.5z"/>
		<path class="st1" d="M650.6,150.3h-4v-24.4l-4.1,2.5v-4.2l4.1-2.7h4V150.3z"/>
		<path class="st1" d="M660.3,149.7c-1.2-0.6-2.2-1.4-3-2.6c-0.7-1.1-1.2-2.5-1.4-4h4.1c0.1,0.8,0.4,1.5,0.8,2
			c0.4,0.5,0.9,0.9,1.5,1.2c0.6,0.3,1.4,0.4,2.2,0.4c1.3,0,2.4-0.4,3.1-1.1c0.7-0.7,1.1-1.7,1.1-3v-0.9c0-1.4-0.3-2.6-1-3.3
			c-0.7-0.8-1.7-1.2-3-1.2h-2v-3.8h2c1.1,0,2-0.3,2.6-1c0.6-0.7,0.9-1.6,0.9-2.9v-0.9c0-1.1-0.3-2-1-2.6c-0.7-0.6-1.6-0.9-2.8-0.9
			c-0.7,0-1.3,0.1-1.8,0.4s-1,0.7-1.4,1.2s-0.7,1.2-0.8,2h-4.1c0.3-1.6,0.8-2.9,1.5-4c0.7-1.1,1.7-2,2.8-2.6
			c1.1-0.6,2.4-0.9,3.9-0.9c2.5,0,4.4,0.7,5.8,2c1.4,1.3,2,3.1,2,5.5v0.5c0,1.4-0.4,2.7-1.2,3.8c-0.8,1.1-1.9,1.8-3.3,2.3
			c1.6,0.3,2.8,1.1,3.7,2.3c0.9,1.2,1.3,2.7,1.3,4.6v0.5c0,1.7-0.3,3.1-1,4.3c-0.6,1.2-1.6,2.1-2.8,2.7c-1.2,0.6-2.7,0.9-4.5,0.9
			C663,150.6,661.6,150.3,660.3,149.7z"/>
		<path class="st1" d="M693.4,125.1l-7.4,25.2h-4.3l7.4-24.9h-7.3v4.1h-4v-8h15.7V125.1z"/>
		<path class="st1" d="M703.2,149.7c-1.1-0.6-2-1.4-2.8-2.5c-0.7-1.1-1.2-2.4-1.4-3.9v0h4v0c0.1,1.1,0.6,1.9,1.3,2.5
			c0.7,0.6,1.6,0.9,2.7,0.9c1.3,0,2.3-0.4,3-1.3c0.7-0.9,1.1-2.1,1.1-3.7v-2.4c0-1.6-0.4-2.8-1.1-3.6c-0.7-0.9-1.7-1.3-3-1.3
			c-0.7,0-1.4,0.2-2,0.6s-1.2,1-1.7,1.7h-3.7v-15.2h14.7v3.8h-10.6v6.5c0.5-0.4,1.1-0.7,1.7-1s1.3-0.3,1.9-0.3c1.7,0,3.1,0.3,4.3,1
			c1.2,0.7,2.1,1.7,2.7,3c0.6,1.3,0.9,2.9,0.9,4.8v2.4c0,1.9-0.3,3.5-1,4.8s-1.6,2.3-2.8,3c-1.2,0.7-2.7,1-4.4,1
			C705.6,150.6,704.3,150.3,703.2,149.7z"/>
	</g>
</g>
<path class="st1" d="M315.9,136c-3.6,0-6.4,3.1-6.4,7s2.9,7,6.4,7c3.6,0,6.4-3.1,6.4-7C322.4,139.1,319.5,136,315.9,136z M338.8,136
	c-3.6,0-6.4,3.1-6.4,7s2.9,7,6.4,7c3.6,0,6.4-3.1,6.4-7S342.4,136,338.8,136z"/>
<path class="st1" d="M369.3,83.3h-84.1c-7.1,0-12.9,5.8-12.9,12.9v84.8c0,7.2,5.8,12.9,12.9,12.9h71.1l-3.3-11.6l8,7.5l7.6,7
	l13.5,11.9V96.3C382.2,89.1,376.4,83.3,369.3,83.3z M345.1,165.3c0,0-2.3-2.7-4.1-5.1c8.2-2.3,11.4-7.5,11.4-7.5
	c-2.6,1.7-5,2.9-7.2,3.7c-3.1,1.3-6.1,2.2-9.1,2.7c-6,1.1-11.5,0.8-16.2-0.1c-3.6-0.7-6.7-1.7-9.2-2.7c-1.4-0.6-3-1.3-4.6-2.1
	c-0.2-0.1-0.4-0.2-0.6-0.3c-0.1-0.1-0.2-0.1-0.3-0.2c-1.1-0.6-1.8-1.1-1.8-1.1s3,5,11,7.4c-1.9,2.4-4.2,5.2-4.2,5.2
	c-13.9-0.4-19.1-9.5-19.1-9.5c0-20.2,9-36.6,9-36.6c9-6.8,17.6-6.6,17.6-6.6l0.6,0.8c-11.3,3.3-16.5,8.2-16.5,8.2s1.4-0.8,3.7-1.8
	c6.7-2.9,12-3.8,14.2-4c0.4-0.1,0.7-0.1,1.1-0.1c3.8-0.5,8.2-0.6,12.7-0.1c6,0.7,12.4,2.4,18.9,6c0,0-5-4.7-15.6-8l0.9-1
	c0,0,8.6-0.2,17.6,6.6c0,0,9,16.4,9,36.6C364.3,155.7,359,164.8,345.1,165.3z"/>
</svg>
