<?xml version="1.0" encoding="utf-8"?>
<!-- Generator: Adobe Illustrator 24.1.1, SVG Export Plug-In . SVG Version: 6.00 Build 0)  -->
<svg version="1.1" id="Layer_1" xmlns="http://www.w3.org/2000/svg" xmlns:xlink="http://www.w3.org/1999/xlink" x="0px" y="0px"
	 viewBox="0 0 1024 290" style="enable-background:new 0 0 1024 290;" xml:space="preserve">
<style type="text/css">
	.st0{display:none;}
	.st1{display:inline;fill:#7289DA;}
	.st2{display:none;fill:#FFFFFF;}
	.st3{fill:#FFFFFF;}
	.st4{fill-rule:evenodd;clip-rule:evenodd;fill:url(#SVGID_1_);}
	.st5{fill:#1686C3;}
</style>
<image style="overflow:visible;opacity:0.3;" width="343" height="85" xlink:href="DEC08E6C.png"  transform="matrix(2.9832 0 0 2.9832 0.7692 36.6764)">
</image>
<g class="st0">
	<polygon class="st1" points="774.1,161 813.3,61.5 78.9,61.5 26.2,195.4 193.2,195.4 169.1,224.3 903.5,224.3 956.2,161 	"/>
</g>
<path class="st2" d="M315.9,136c-3.6,0-6.4,3.1-6.4,7s2.9,7,6.4,7c3.6,0,6.4-3.1,6.4-7C322.4,139.1,319.5,136,315.9,136z M338.8,136
	c-3.6,0-6.4,3.1-6.4,7s2.9,7,6.4,7c3.6,0,6.4-3.1,6.4-7S342.4,136,338.8,136z"/>
<path class="st2" d="M369.3,83.3h-84.1c-7.1,0-12.9,5.8-12.9,12.9v84.8c0,7.2,5.8,12.9,12.9,12.9h71.1l-3.3-11.6l8,7.5l7.6,7
	l13.5,11.9V96.3C382.2,89.1,376.4,83.3,369.3,83.3z M345.1,165.3c0,0-2.3-2.7-4.1-5.1c8.2-2.3,11.4-7.5,11.4-7.5
	c-2.6,1.7-5,2.9-7.2,3.7c-3.1,1.3-6.1,2.2-9.1,2.7c-6,1.1-11.5,0.8-16.2-0.1c-3.6-0.7-6.7-1.7-9.2-2.7c-1.4-0.6-3-1.3-4.6-2.1
	c-0.2-0.1-0.4-0.2-0.6-0.3c-0.1-0.1-0.2-0.1-0.3-0.2c-1.1-0.6-1.8-1.1-1.8-1.1s3,5,11,7.4c-1.9,2.4-4.2,5.2-4.2,5.2
	c-13.9-0.4-19.1-9.5-19.1-9.5c0-20.2,9-36.6,9-36.6c9-6.8,17.6-6.6,17.6-6.6l0.6,0.8c-11.3,3.3-16.5,8.2-16.5,8.2s1.4-0.8,3.7-1.8
	c6.7-2.9,12-3.8,14.2-4c0.4-0.1,0.7-0.1,1.1-0.1c3.8-0.5,8.2-0.6,12.7-0.1c6,0.7,12.4,2.4,18.9,6c0,0-5-4.7-15.6-8l0.9-1
	c0,0,8.6-0.2,17.6,6.6c0,0,9,16.4,9,36.6C364.3,155.7,359,164.8,345.1,165.3z"/>
<g>
	<polygon class="st3" points="796.1,160.1 836.7,56.8 74.4,56.8 19.8,195.8 193.1,195.8 168.1,225.8 930.3,225.8 985,160.1 	"/>
</g>
<g>
	<linearGradient id="SVGID_1_" gradientUnits="userSpaceOnUse" x1="166.5438" y1="15.0818" x2="475.0422" y2="249.1149">
		<stop  offset="0.3172" style="stop-color:#20A9E5"/>
		<stop  offset="0.672" style="stop-color:#1686C3"/>
	</linearGradient>
	<path class="st4" d="M266.7,180.7c9.2,0.6,18.1-0.8,26.5-4.6c3.8-1.6,7.2-3.7,10.6-6.4c-4-0.1-7.7-1.1-11-2.7
		c-5.7-2.9-9.7-7.4-12.1-13.6c-0.5-1.4-0.5-1.4,1-1.3c4.1,0.4,7,0.3,9.3-0.6c-2.2-0.8-4.3-1.1-6-2.3c-8.5-4.7-13-11.9-13.7-21.6
		c-0.1-1.1,0.2-1.3,1.3-0.8c3,1.6,6.2,2.3,10,2.7c-1.6-1.5-3-2.7-4.3-3.9c-7-7.6-8.7-19.6-4-28.8c0.6-1.2,0.9-1.2,1.7-0.2
		c11.9,13.6,26.6,21.9,44.4,24.7c1.8,0.3,3.8,0.4,5.6,0.7c1.3,0.2,1.4-0.4,1.2-1.4c-1.8-10.7,3.2-21.3,12.6-26.6
		c9.6-5.6,22.2-3.8,29.9,3.7c0.9,0.8,1.8,0.9,2.8,0.7c4.8-1.1,9.2-2.9,13.4-5.2c0.4-0.1,0.6-0.4,1.1-0.7c-1.8,6-5.4,10.4-10.7,14
		c4.9-0.5,9.3-1.9,13.7-3.6c0.1,0.6-0.4,1-0.6,1.4c-3,4.1-6.4,7.8-10.5,10.8c-0.8,0.6-0.9,1.1-0.9,2.1c0.3,18.6-5.6,35.2-17.5,49.6
		c-11.2,13.1-25.5,21.1-42.5,23.8c-18,2.8-35-0.2-50.6-9.8C267.1,180.9,266.9,180.7,266.7,180.7z"/>
</g>
<g>
	<g>
		<path class="st5" d="M432.3,156.9c-1.9-0.9-3.4-2.3-4.3-4.2c-1-1.9-1.4-4.2-1.4-7.1c0-0.8,0-1.5,0-2.3c0-0.8,0-1.5,0-2.3
			c0-3.1,0.5-5.6,1.5-7.7c1-2,2.4-3.6,4.3-4.6c1.9-1,4.3-1.5,7.2-1.5c2.8,0,5.2,0.5,7.2,1.5c1.9,1,3.4,2.6,4.3,4.6
			c1,2,1.5,4.6,1.5,7.6v5.3c0,2-0.4,3.4-1.2,4.4c-0.8,0.9-2,1.4-3.6,1.4c-1.7,0-2.9-0.4-3.7-1.3c-0.8-0.9-1.2-2.2-1.2-4l3.6-0.1
			c0,0.8,0.1,1.5,0.4,1.9c0.3,0.4,0.6,0.6,1.1,0.6c0.5,0,0.9-0.2,1.2-0.6c0.2-0.4,0.4-1,0.4-1.9v-5.7c0-2.4-0.4-4.4-1.1-6
			c-0.7-1.6-1.8-2.8-3.3-3.6c-1.5-0.8-3.3-1.2-5.4-1.2c-2.2,0-4,0.4-5.5,1.2c-1.5,0.8-2.6,2-3.3,3.6c-0.7,1.6-1.1,3.6-1.1,6
			c0,0.8,0,1.5,0,2.3c0,0.8,0,1.6,0,2.3c0,2.2,0.4,3.9,1.1,5.4c0.7,1.4,1.8,2.5,3.3,3.2c1.5,0.7,3.3,1.1,5.5,1.1h5.1v3.1h-5.1
			C436.6,158.3,434.2,157.8,432.3,156.9z M434.2,150.1c-1-1.3-1.5-3.2-1.5-5.7v-2.9c0-2.6,0.6-4.5,1.7-5.8c1.1-1.3,2.8-1.9,5.1-1.9
			c2.3,0,4,0.6,5.1,1.9s1.7,3.2,1.7,5.8v5.5l-2.5,1c-0.2,1.4-0.8,2.4-1.6,3c-0.8,0.7-2,1-3.5,1C436.7,152,435.2,151.4,434.2,150.1z
			 M442.1,147.8c0.6-0.7,0.9-1.8,0.9-3.3v-3.3c0-1.4-0.3-2.5-0.9-3.2s-1.5-1.1-2.6-1.1c-2.3,0-3.5,1.4-3.5,4.3v3.2
			c0,1.5,0.3,2.6,0.9,3.3c0.6,0.7,1.4,1.1,2.6,1.1C440.7,148.9,441.5,148.5,442.1,147.8z"/>
		<path class="st5" d="M457.8,134h3.5v17.7h-3.5V134z M468.6,141c0-1.3-0.3-2.2-1-2.9s-1.6-1-2.7-1c-1.1,0-2,0.3-2.6,0.9
			c-0.6,0.6-0.9,1.5-0.9,2.5l-0.4-3.4c0.5-1.1,1.3-1.9,2.1-2.5c0.9-0.6,1.9-0.9,2.9-0.9c1.9,0,3.4,0.6,4.5,1.9
			c1.1,1.3,1.6,3,1.6,5.3v10.8h-3.5V141z"/>
		<path class="st5" d="M480.4,151.1c-1.2-0.6-2-1.5-2.7-2.7s-0.9-2.6-0.9-4.3v-2c0-1.8,0.3-3.3,0.9-4.5c0.6-1.2,1.4-2.2,2.6-2.8
			c1.1-0.6,2.5-1,4-1c1.5,0,2.7,0.4,3.8,1.1c1,0.7,1.8,1.8,2.4,3.2s0.8,3.1,0.8,5v1.2h-12v-2.8h8.6c-0.1-1.4-0.5-2.6-1.1-3.4
			c-0.6-0.8-1.5-1.2-2.6-1.2c-1.3,0-2.3,0.4-3.1,1.3c-0.7,0.9-1.1,2.1-1.1,3.7v2.3c0,1.5,0.4,2.6,1.2,3.4c0.8,0.8,1.9,1.2,3.3,1.2
			c0.7,0,1.4-0.1,2.1-0.4c0.7-0.3,1.3-0.7,1.9-1.2l2.3,2.3c-0.9,0.8-1.9,1.5-3,2c-1.1,0.5-2.2,0.7-3.3,0.7
			C483,152,481.6,151.7,480.4,151.1z"/>
		<path class="st5" d="M494.8,134h8v3.1h-8V134z M497.6,150.7c-0.7-0.8-1-2-1-3.5v-18.3h3.5v18.3c0,0.4,0.1,0.8,0.3,1
			s0.4,0.3,0.8,0.3h1.7v3.3h-2C499.3,151.9,498.3,151.5,497.6,150.7z"/>
		<path class="st5" d="M519.5,151.8v3.3h-14.2v-3.3H519.5z"/>
		<path class="st5" d="M522.8,134h3.5v17.7h-3.5V134z M533.6,141c0-1.3-0.3-2.2-1-2.9c-0.7-0.7-1.6-1-2.7-1c-1.1,0-2,0.3-2.6,0.9
			c-0.6,0.6-0.9,1.5-0.9,2.5l-0.4-3.4c0.5-1.1,1.3-1.9,2.1-2.5c0.9-0.6,1.9-0.9,2.9-0.9c1.9,0,3.4,0.6,4.5,1.9
			c1.1,1.3,1.6,3,1.6,5.3v10.8h-3.5V141z"/>
		<path class="st5" d="M543.1,150.7c-1.1-0.9-1.6-2.3-1.6-4.1c0-1.8,0.5-3.1,1.5-3.9c1-0.9,2.5-1.3,4.5-1.3h5l0.2,2.8h-5.3
			c-0.9,0-1.6,0.2-2,0.6c-0.5,0.4-0.7,1-0.7,1.9c0,0.9,0.3,1.6,0.9,2c0.6,0.4,1.5,0.7,2.7,0.7c1.3,0,2.3-0.1,3-0.4
			c0.7-0.3,1-0.7,1-1.3l0.4,2.5c-0.3,0.5-0.7,0.9-1.1,1.2c-0.5,0.3-1,0.5-1.6,0.7c-0.6,0.2-1.3,0.2-2,0.2
			C545.8,152,544.2,151.6,543.1,150.7z M552.4,140.5c0-1.2-0.3-2.1-0.9-2.7c-0.6-0.6-1.5-1-2.6-1c-0.7,0-1.4,0.1-2.1,0.3
			c-0.7,0.2-1.3,0.5-1.8,0.9l-2.5-1.7c0.7-0.8,1.6-1.4,2.7-1.9c1.1-0.5,2.3-0.7,3.7-0.7c1.5,0,2.7,0.3,3.8,0.8
			c1,0.5,1.8,1.3,2.4,2.3s0.8,2.2,0.8,3.6v11.4h-3.3V140.5z"/>
		<path class="st5" d="M561,134h3.5v17.7H561V134z M571.6,141c0-1.3-0.3-2.2-0.9-2.9s-1.5-1-2.6-1c-1.1,0-2,0.3-2.6,0.9
			c-0.6,0.6-0.9,1.5-0.9,2.5l-0.4-3.4c0.5-1.1,1.3-1.9,2.1-2.5c0.9-0.6,1.9-0.9,2.9-0.9c1.2,0,2.3,0.3,3.2,0.8
			c0.9,0.6,1.5,1.4,2,2.5c0.5,1.1,0.7,2.4,0.7,3.9v10.8h-3.5V141z M582.2,141c0-1.3-0.3-2.2-1-2.9c-0.6-0.7-1.6-1-2.7-1
			c-1.1,0-1.9,0.3-2.5,1c-0.6,0.7-0.9,1.6-0.9,2.8l-0.7-3.4c0.6-1.2,1.3-2.1,2.2-2.7c0.9-0.6,1.9-1,3-1c1.3,0,2.4,0.3,3.3,0.8
			c0.9,0.6,1.6,1.4,2.1,2.5c0.5,1.1,0.7,2.4,0.7,3.9v10.8h-3.5V141z"/>
		<path class="st5" d="M594.4,144.8c0,1.2,0.3,2.2,0.9,2.9c0.6,0.7,1.5,1,2.7,1c1.1,0,2-0.3,2.6-0.9c0.6-0.6,0.9-1.5,0.9-2.6
			l0.2,3.7c-0.4,0.9-1,1.6-1.8,2.2c-0.8,0.6-1.8,0.9-3,0.9c-2,0-3.5-0.6-4.5-1.9s-1.6-3-1.6-5.3V134h3.5V144.8z M601.6,134h3.5v17.7
			h-3.5V134z"/>
	</g>
</g>
</svg>
